<mxfile host="Electron" agent="Mozilla/5.0 (Macintosh; Intel Mac OS X 10_15_7) AppleWebKit/537.36 (KHTML, like Gecko) draw.io/28.0.6 Chrome/138.0.7204.100 Electron/37.2.3 Safari/537.36" version="28.0.6">
  <diagram name="Page-1" id="o42AoNnHxabg2RZjM1M9">
    <mxGraphModel dx="608" dy="819" grid="1" gridSize="10" guides="1" tooltips="1" connect="1" arrows="1" fold="1" page="1" pageScale="1" pageWidth="827" pageHeight="1169" math="0" shadow="0">
      <root>
        <mxCell id="0" />
        <mxCell id="1" parent="0" />
        <mxCell id="LCJjFEMlVOXkCbty422d-1" value="OpenShift Node" style="rounded=0;whiteSpace=wrap;html=1;fillColor=#f5f5f5;fontColor=#333333;strokeColor=#666666;verticalAlign=bottom;" vertex="1" parent="1">
          <mxGeometry x="90" y="60" width="640" height="270" as="geometry" />
        </mxCell>
        <mxCell id="LCJjFEMlVOXkCbty422d-7" style="edgeStyle=orthogonalEdgeStyle;rounded=0;orthogonalLoop=1;jettySize=auto;html=1;exitX=1;exitY=0.5;exitDx=0;exitDy=0;entryX=0;entryY=0.5;entryDx=0;entryDy=0;endArrow=none;endFill=0;" edge="1" parent="1" source="LCJjFEMlVOXkCbty422d-2" target="LCJjFEMlVOXkCbty422d-5">
          <mxGeometry relative="1" as="geometry">
            <Array as="points">
              <mxPoint x="170" y="115" />
              <mxPoint x="170" y="135" />
            </Array>
          </mxGeometry>
        </mxCell>
        <mxCell id="LCJjFEMlVOXkCbty422d-2" value="eth0" style="rounded=0;whiteSpace=wrap;html=1;fillColor=#d5e8d4;strokeColor=#82b366;verticalAlign=middle;" vertex="1" parent="1">
          <mxGeometry x="90" y="100" width="70" height="30" as="geometry" />
        </mxCell>
        <mxCell id="LCJjFEMlVOXkCbty422d-4" value="eth1" style="rounded=0;whiteSpace=wrap;html=1;fillColor=#97D077;strokeColor=#82b366;verticalAlign=middle;" vertex="1" parent="1">
          <mxGeometry x="90" y="140" width="70" height="30" as="geometry" />
        </mxCell>
        <mxCell id="LCJjFEMlVOXkCbty422d-15" style="edgeStyle=orthogonalEdgeStyle;rounded=0;orthogonalLoop=1;jettySize=auto;html=1;exitX=1;exitY=0.5;exitDx=0;exitDy=0;entryX=0;entryY=0.5;entryDx=0;entryDy=0;endArrow=none;endFill=0;" edge="1" parent="1" source="LCJjFEMlVOXkCbty422d-5" target="LCJjFEMlVOXkCbty422d-9">
          <mxGeometry relative="1" as="geometry" />
        </mxCell>
        <mxCell id="LCJjFEMlVOXkCbty422d-34" value="" style="edgeStyle=orthogonalEdgeStyle;rounded=0;orthogonalLoop=1;jettySize=auto;html=1;entryX=0;entryY=0.5;entryDx=0;entryDy=0;exitX=0.5;exitY=1;exitDx=0;exitDy=0;" edge="1" parent="1" source="LCJjFEMlVOXkCbty422d-5" target="LCJjFEMlVOXkCbty422d-33">
          <mxGeometry relative="1" as="geometry" />
        </mxCell>
        <mxCell id="LCJjFEMlVOXkCbty422d-5" value="bond0" style="rounded=0;whiteSpace=wrap;html=1;verticalAlign=middle;fillColor=#e1d5e7;strokeColor=#9673a6;" vertex="1" parent="1">
          <mxGeometry x="194" y="120" width="70" height="30" as="geometry" />
        </mxCell>
        <mxCell id="LCJjFEMlVOXkCbty422d-8" style="edgeStyle=orthogonalEdgeStyle;rounded=0;orthogonalLoop=1;jettySize=auto;html=1;exitX=1;exitY=0.5;exitDx=0;exitDy=0;entryX=0;entryY=0.5;entryDx=0;entryDy=0;endArrow=none;endFill=0;" edge="1" parent="1" source="LCJjFEMlVOXkCbty422d-4" target="LCJjFEMlVOXkCbty422d-5">
          <mxGeometry relative="1" as="geometry">
            <mxPoint x="220" y="100" as="sourcePoint" />
            <mxPoint x="254" y="120" as="targetPoint" />
            <Array as="points">
              <mxPoint x="170" y="155" />
              <mxPoint x="170" y="135" />
            </Array>
          </mxGeometry>
        </mxCell>
        <mxCell id="LCJjFEMlVOXkCbty422d-19" style="edgeStyle=orthogonalEdgeStyle;rounded=0;orthogonalLoop=1;jettySize=auto;html=1;exitX=1;exitY=0.5;exitDx=0;exitDy=0;entryX=0;entryY=0.5;entryDx=0;entryDy=0;endArrow=none;endFill=0;" edge="1" parent="1" source="LCJjFEMlVOXkCbty422d-9" target="LCJjFEMlVOXkCbty422d-16">
          <mxGeometry relative="1" as="geometry" />
        </mxCell>
        <mxCell id="LCJjFEMlVOXkCbty422d-9" value="bond0.32" style="rounded=0;whiteSpace=wrap;html=1;verticalAlign=middle;fillColor=#e1d5e7;strokeColor=#9673a6;" vertex="1" parent="1">
          <mxGeometry x="290" y="120" width="70" height="30" as="geometry" />
        </mxCell>
        <mxCell id="LCJjFEMlVOXkCbty422d-23" value="" style="edgeStyle=orthogonalEdgeStyle;rounded=0;orthogonalLoop=1;jettySize=auto;html=1;entryX=0;entryY=0.5;entryDx=0;entryDy=0;endArrow=none;endFill=0;" edge="1" parent="1" source="LCJjFEMlVOXkCbty422d-16" target="LCJjFEMlVOXkCbty422d-20">
          <mxGeometry relative="1" as="geometry" />
        </mxCell>
        <mxCell id="LCJjFEMlVOXkCbty422d-16" value="br-ex" style="rounded=0;whiteSpace=wrap;html=1;verticalAlign=middle;fillColor=#dae8fc;strokeColor=#6c8ebf;" vertex="1" parent="1">
          <mxGeometry x="390" y="120" width="70" height="30" as="geometry" />
        </mxCell>
        <mxCell id="LCJjFEMlVOXkCbty422d-17" value="OVN componets" style="rounded=0;whiteSpace=wrap;html=1;verticalAlign=middle;fillColor=#dae8fc;strokeColor=#6c8ebf;" vertex="1" parent="1">
          <mxGeometry x="550" y="340" width="170" height="30" as="geometry" />
        </mxCell>
        <mxCell id="LCJjFEMlVOXkCbty422d-30" value="" style="edgeStyle=orthogonalEdgeStyle;rounded=0;orthogonalLoop=1;jettySize=auto;html=1;entryX=0;entryY=0.5;entryDx=0;entryDy=0;endArrow=none;endFill=0;" edge="1" parent="1" source="LCJjFEMlVOXkCbty422d-20" target="LCJjFEMlVOXkCbty422d-25">
          <mxGeometry relative="1" as="geometry" />
        </mxCell>
        <mxCell id="LCJjFEMlVOXkCbty422d-20" value="Localnet" style="rounded=0;whiteSpace=wrap;html=1;verticalAlign=middle;fillColor=#dae8fc;strokeColor=#6c8ebf;" vertex="1" parent="1">
          <mxGeometry x="509" y="100" width="80" height="30" as="geometry" />
        </mxCell>
        <mxCell id="LCJjFEMlVOXkCbty422d-27" value="" style="edgeStyle=orthogonalEdgeStyle;rounded=0;orthogonalLoop=1;jettySize=auto;html=1;endArrow=none;endFill=0;" edge="1" parent="1" source="LCJjFEMlVOXkCbty422d-21" target="LCJjFEMlVOXkCbty422d-26">
          <mxGeometry relative="1" as="geometry" />
        </mxCell>
        <mxCell id="LCJjFEMlVOXkCbty422d-21" value="Localnet with VLAN 1004" style="rounded=0;whiteSpace=wrap;html=1;verticalAlign=middle;fillColor=#dae8fc;strokeColor=#6c8ebf;" vertex="1" parent="1">
          <mxGeometry x="509" y="140" width="80" height="30" as="geometry" />
        </mxCell>
        <mxCell id="LCJjFEMlVOXkCbty422d-24" value="" style="edgeStyle=orthogonalEdgeStyle;rounded=0;orthogonalLoop=1;jettySize=auto;html=1;entryX=0;entryY=0.5;entryDx=0;entryDy=0;exitX=1;exitY=0.5;exitDx=0;exitDy=0;endArrow=none;endFill=0;" edge="1" parent="1" source="LCJjFEMlVOXkCbty422d-16" target="LCJjFEMlVOXkCbty422d-21">
          <mxGeometry relative="1" as="geometry">
            <mxPoint x="500" y="130" as="sourcePoint" />
            <mxPoint x="549" y="110" as="targetPoint" />
          </mxGeometry>
        </mxCell>
        <mxCell id="LCJjFEMlVOXkCbty422d-25" value="VM" style="rounded=0;whiteSpace=wrap;html=1;verticalAlign=middle;" vertex="1" parent="1">
          <mxGeometry x="630" y="100" width="80" height="30" as="geometry" />
        </mxCell>
        <mxCell id="LCJjFEMlVOXkCbty422d-26" value="VM" style="rounded=0;whiteSpace=wrap;html=1;verticalAlign=middle;" vertex="1" parent="1">
          <mxGeometry x="630" y="140" width="80" height="30" as="geometry" />
        </mxCell>
        <mxCell id="LCJjFEMlVOXkCbty422d-31" value="✅ Connection" style="rounded=0;whiteSpace=wrap;html=1;verticalAlign=middle;fillColor=#fff2cc;strokeColor=#d6b656;" vertex="1" parent="1">
          <mxGeometry x="700" y="105" width="110" height="20" as="geometry" />
        </mxCell>
        <mxCell id="LCJjFEMlVOXkCbty422d-32" value="❌ No connection" style="rounded=0;whiteSpace=wrap;html=1;verticalAlign=middle;fillColor=#fff2cc;strokeColor=#d6b656;" vertex="1" parent="1">
          <mxGeometry x="700" y="145" width="110" height="20" as="geometry" />
        </mxCell>
        <mxCell id="LCJjFEMlVOXkCbty422d-44" value="" style="edgeStyle=orthogonalEdgeStyle;rounded=0;orthogonalLoop=1;jettySize=auto;html=1;endArrow=none;endFill=0;" edge="1" parent="1" source="LCJjFEMlVOXkCbty422d-33" target="LCJjFEMlVOXkCbty422d-36">
          <mxGeometry relative="1" as="geometry" />
        </mxCell>
        <mxCell id="LCJjFEMlVOXkCbty422d-33" value="Linux bridge" style="rounded=0;whiteSpace=wrap;html=1;verticalAlign=middle;fillColor=#e1d5e7;strokeColor=#9673a6;" vertex="1" parent="1">
          <mxGeometry x="290" y="225" width="70" height="30" as="geometry" />
        </mxCell>
        <mxCell id="LCJjFEMlVOXkCbty422d-42" value="" style="edgeStyle=orthogonalEdgeStyle;rounded=0;orthogonalLoop=1;jettySize=auto;html=1;endArrow=none;endFill=0;" edge="1" parent="1" source="LCJjFEMlVOXkCbty422d-35" target="LCJjFEMlVOXkCbty422d-38">
          <mxGeometry relative="1" as="geometry" />
        </mxCell>
        <mxCell id="LCJjFEMlVOXkCbty422d-35" value="net-attach-def" style="rounded=0;whiteSpace=wrap;html=1;verticalAlign=middle;fillColor=#e1d5e7;strokeColor=#9673a6;" vertex="1" parent="1">
          <mxGeometry x="460" y="210" width="130" height="30" as="geometry" />
        </mxCell>
        <mxCell id="LCJjFEMlVOXkCbty422d-43" value="" style="edgeStyle=orthogonalEdgeStyle;rounded=0;orthogonalLoop=1;jettySize=auto;html=1;entryX=0;entryY=0.5;entryDx=0;entryDy=0;endArrow=none;endFill=0;" edge="1" parent="1" source="LCJjFEMlVOXkCbty422d-36" target="LCJjFEMlVOXkCbty422d-39">
          <mxGeometry relative="1" as="geometry" />
        </mxCell>
        <mxCell id="LCJjFEMlVOXkCbty422d-36" value="net-attach-def&lt;div&gt;with VLAN 1004&lt;/div&gt;" style="rounded=0;whiteSpace=wrap;html=1;verticalAlign=middle;fillColor=#e1d5e7;strokeColor=#9673a6;" vertex="1" parent="1">
          <mxGeometry x="460" y="250" width="130" height="30" as="geometry" />
        </mxCell>
        <mxCell id="LCJjFEMlVOXkCbty422d-38" value="VM" style="rounded=0;whiteSpace=wrap;html=1;verticalAlign=middle;" vertex="1" parent="1">
          <mxGeometry x="630" y="210" width="80" height="30" as="geometry" />
        </mxCell>
        <mxCell id="LCJjFEMlVOXkCbty422d-39" value="VM" style="rounded=0;whiteSpace=wrap;html=1;verticalAlign=middle;" vertex="1" parent="1">
          <mxGeometry x="630" y="250" width="80" height="30" as="geometry" />
        </mxCell>
        <mxCell id="LCJjFEMlVOXkCbty422d-40" value="✅ Connection" style="rounded=0;whiteSpace=wrap;html=1;verticalAlign=middle;fillColor=#fff2cc;strokeColor=#d6b656;" vertex="1" parent="1">
          <mxGeometry x="700" y="215" width="110" height="20" as="geometry" />
        </mxCell>
        <mxCell id="LCJjFEMlVOXkCbty422d-41" value="✅ Connection" style="rounded=0;whiteSpace=wrap;html=1;verticalAlign=middle;fillColor=#fff2cc;strokeColor=#d6b656;" vertex="1" parent="1">
          <mxGeometry x="700" y="255" width="110" height="20" as="geometry" />
        </mxCell>
        <mxCell id="LCJjFEMlVOXkCbty422d-46" value="" style="edgeStyle=orthogonalEdgeStyle;rounded=0;orthogonalLoop=1;jettySize=auto;html=1;entryX=0;entryY=0.5;entryDx=0;entryDy=0;endArrow=none;endFill=0;" edge="1" parent="1" target="LCJjFEMlVOXkCbty422d-35">
          <mxGeometry relative="1" as="geometry">
            <mxPoint x="410" y="250" as="sourcePoint" />
            <mxPoint x="510" y="275" as="targetPoint" />
            <Array as="points">
              <mxPoint x="410" y="225" />
            </Array>
          </mxGeometry>
        </mxCell>
        <mxCell id="LCJjFEMlVOXkCbty422d-49" value="Linux Kernel components" style="rounded=0;whiteSpace=wrap;html=1;verticalAlign=middle;fillColor=#e1d5e7;strokeColor=#9673a6;" vertex="1" parent="1">
          <mxGeometry x="550" y="380" width="171" height="30" as="geometry" />
        </mxCell>
        <mxCell id="LCJjFEMlVOXkCbty422d-51" value="VLAN Tagging" style="shape=callout;whiteSpace=wrap;html=1;perimeter=calloutPerimeter;fillColor=#fff2cc;strokeColor=#d6b656;" vertex="1" parent="1">
          <mxGeometry x="260" y="70" width="120" height="55" as="geometry" />
        </mxCell>
      </root>
    </mxGraphModel>
  </diagram>
</mxfile>
